# xmcd CD database file
#
# Track frame offsets:
#	150
#	12508
#	25293
#	39390
#	53034
#	64486
#	76553
#	88272
#	101699
#	113694
#	125044
#	136905
#	151670
#	163717
#	176372
#	188588
#	201905
#	214143
#	226708
#	239665
#	252730
#	265278
#	277397
#	289962
#	300621
#
# Disc length: 4189 seconds
#
# Revision: 0
# Processed by: cddbd v1.5.2PL0 Copyright (c) Steve Scherf et al.
# Submitted via: CDex 1.70beta2
#
DISCID=6b105b19
DTITLE=Various Artist - Jazz Roads CD120 - Swing - Duke Ellington Small Groups Vol.4 (1939)
DYEAR=2006
DGENRE=Jazz
TTITLE0=Cootie Williams And His Rug Cutters - Beautiful Romance
TTITLE1=Cootie Williams And His Rug Cutters - Boudoir Benny
TTITLE2=Cootie Williams And His Rug Cutters - Ain't The Gravy Good
TTITLE3=Cootie Williams And His Rug Cutters - She's Gone
TTITLE4=Johnny Hodges And His Orchestra - Savoy Strut
TTITLE5=Johnny Hodges And His Orchestra - Rent Party Blues
TTITLE6=Johnny Hodges And His Orchestra - Dance Of The Goon
TTITLE7=Johnny Hodges And His Orchestra - Good Gal Blues
TTITLE8=Johnny Hodges And His Orchestra - Finesse (Night Wind)
TTITLE9=Johnny Hodges And His Orchestra - Kitchen Mechanic's Day
TTITLE10=Johnny Hodges And His Orchestra - My Heart Jumped Over The Moon
TTITLE11=Johnny Hodges And His Orchestra - You Can Count On Me
TTITLE12=Johnny Hodges And His Orchestra - Home Town Blues
TTITLE13=Barney Bigard And His Jazzopators/The Quintones  - Utt-Da-Zay (The Taylor Song)
TTITLE14=Barney Bigard And His Jazzopators/The Quintones  - Chew-Chew-Chew (Your Bubble-Gum)
TTITLE15=Barney Bigard And His Jazzopators/The Quintones  - Barney Goin' Easy
TTITLE16=Barney Bigard And His Jazzopators/The Quintones  - Just Another Dream
TTITLE17=Cootie Williams And His Rug Cutters - Night Song
TTITLE18=Cootie Williams And His Rug Cutters - Blues A-Poppin'
TTITLE19=Cootie Williams And His Rug Cutters - Top And Bottom
TTITLE20=Cootie Williams And His Rug Cutters - Black Beauty
TTITLE21=Johnny Hodges And His Orchestra - The Rabbit's Jump
TTITLE22=Johnny Hodges And His Orchestra - Moon Romance
TTITLE23=Johnny Hodges And His Orchestra - Truly Wonderful
TTITLE24=Johnny Hodges And His Orchestra - Dream Blues
EXTD=YEAR: 2006
EXTT0=
EXTT1=
EXTT2=
EXTT3=
EXTT4=
EXTT5=
EXTT6=
EXTT7=
EXTT8=
EXTT9=
EXTT10=
EXTT11=
EXTT12=
EXTT13=
EXTT14=
EXTT15=
EXTT16=
EXTT17=
EXTT18=
EXTT19=
EXTT20=
EXTT21=
EXTT22=
EXTT23=
EXTT24=
PLAYORDER=
